<?xml version="1.0" standalone="no"?><!DOCTYPE svg PUBLIC "-//W3C//DTD SVG 1.1//EN" "http://www.w3.org/Graphics/SVG/1.1/DTD/svg11.dtd"><svg width="200" height="200" viewBox="0 0 200 200" version="1.1" xmlns="http://www.w3.org/2000/svg" xmlns:xlink="http://www.w3.org/1999/xlink"><defs><style type="text/css"><![CDATA[
@font-face { font-family: ifont; src: url("//at.alicdn.com/t/font_1442373896_4754455.eot?#iefix") format("embedded-opentype"), url("//at.alicdn.com/t/font_1442373896_4754455.woff") format("woff"), url("//at.alicdn.com/t/font_1442373896_4754455.ttf") format("truetype"), url("//at.alicdn.com/t/font_1442373896_4754455.svg#ifont") format("svg"); }

]]></style></defs><g class="transform-group"><g transform="scale(0.1953125, 0.1953125)"><path d="M512.340249 831.633784c-178.032766 0-322.356802-144.323013-322.356802-322.356802 0-178.032766 144.324036-322.356802 322.356802-322.356802 132.621507 0 246.51651 83.161025 296.001551 197.617823l-21.674649 0.254803 54.869678 82.092693 53.592592-83.368756-21.48636 0.252757C820.489468 235.585553 678.798399 126.545114 512.340249 126.545114c-211.942063 0-383.755174 171.812087-383.755174 383.755174 0 211.943087 171.813111 383.755174 383.755174 383.755174 166.518524 0 308.258713-106.061594 361.369328-254.31308l-66.528206 0C757.091556 752.773715 643.934357 831.633784 512.340249 831.633784z" fill="#56abe4"></path></g></g></svg>